<?xml version="1.0" encoding="UTF-8"?>
<svg id="Camada_1" data-name="Camada 1" xmlns="http://www.w3.org/2000/svg" version="1.1" viewBox="0 0 1500 587.22">
  <defs>
    <style>
      .cls-1 {
        fill: #18c29c;
      }

      .cls-1, .cls-2, .cls-3 {
        stroke-width: 0px;
      }

      .cls-2 {
        fill: #0b877d;
      }

      .cls-3 {
        fill: #126872;
      }
    </style>
  </defs>
  <g>
    <path class="cls-2" d="M342.18,469.4c-12.87,9.13-27.84,15.5-44.06,18.22-5.8.97-11.76,1.48-17.84,1.48s-12.04-.51-17.84-1.48c-50.62-8.5-89.2-52.53-89.2-105.56v-178.39c0-53.03,38.58-97.06,89.2-105.56v36.45c-30.78,7.92-53.52,35.86-53.52,69.11v71.36h53.52v35.68h-53.52v71.36c0,33.25,22.74,61.19,53.52,69.11,5.7,1.47,11.68,2.25,17.84,2.25s12.14-.78,17.84-2.25c6.49-1.67,12.64-4.23,18.27-7.56l25.78,25.78Z"/>
    <path class="cls-1" d="M387.32,203.68v178.39c0,23.17-7.36,44.62-19.88,62.14l-25.76-25.76c6.33-10.65,9.96-23.09,9.96-36.38v-71.36h-53.52v-35.68h53.52v-71.36c0-19.7-7.98-37.54-20.9-50.46-8.88-8.88-20.08-15.43-32.62-18.65v-36.45c22.41,3.76,42.46,14.49,57.84,29.87,19.37,19.37,31.35,46.13,31.35,75.69Z"/>
  </g>
  <g>
    <g>
      <path class="cls-2" d="M517.31,249.29v24.44h-65.47v-93.71h64.79v24.44h-38.84v9.92h34.5v24.44h-34.5v10.46h39.53Z"/>
      <path class="cls-2" d="M588.86,273.73l-17.66-28.25-17.52,28.25h-31.65l31.65-47.13-31.1-46.58h31.92l17.11,27.7,16.98-27.7h31.65l-31.1,46.58,31.65,47.13h-31.92Z"/>
      <path class="cls-2" d="M706.46,213.29c0,19.02-14.94,33.28-34.63,33.28h-17.52v27.16h-25.94v-93.71h43.46c19.7,0,34.63,14.26,34.63,33.27ZM679.84,213.29c0-5.03-3.67-8.83-8.56-8.83h-16.98v17.66h16.98c4.89,0,8.56-3.8,8.56-8.83Z"/>
      <path class="cls-2" d="M781.01,249.29v24.44h-65.47v-93.71h64.79v24.44h-38.84v9.92h34.5v24.44h-34.5v10.46h39.53Z"/>
      <path class="cls-2" d="M827.44,244.66h-8.15v29.06h-25.94v-93.71h42.1c19.7,0,34.63,14.13,34.63,33,0,11.95-6.25,21.74-15.89,27.16l18.74,33.55h-31.1l-14.4-29.06ZM819.29,222.12h15.62c4.89,0,8.56-3.8,8.56-8.83s-3.67-8.83-8.56-8.83h-15.62v17.66Z"/>
      <path class="cls-2" d="M881.2,180.02h25.94v93.71h-25.94v-93.71Z"/>
      <path class="cls-2" d="M988.08,249.29v24.44h-65.47v-93.71h64.79v24.44h-38.84v9.92h34.5v24.44h-34.5v10.46h39.53ZM950.19,174.04h-22.81l13.31-21.46h29.34l13.31,21.46h-22.81l-5.16-8.15-5.16,8.15Z"/>
      <path class="cls-2" d="M1083.28,180.02v93.71h-25.94l-30.97-47.95v47.95h-25.94v-93.71h25.94l30.97,47.94v-47.94h25.94Z"/>
      <path class="cls-2" d="M1094.39,226.87c0-27.58,21.46-48.49,49.85-48.49,17.79,0,32.86,8.15,41.7,21.05l-22.41,13.86c-4.21-6.11-11.14-9.91-19.28-9.91-13.17,0-23.22,10.05-23.22,23.5s10.05,23.5,23.22,23.5c8.15,0,15.07-3.8,19.28-9.91l22.41,13.85c-8.83,12.91-23.91,21.06-41.7,21.06-28.39,0-49.85-20.92-49.85-48.49Z"/>
      <path class="cls-2" d="M1195.15,180.02h25.94v93.71h-25.94v-93.71Z"/>
      <path class="cls-2" d="M1294.15,260.83h-33.28l-4.21,12.9h-27.84l33.68-93.71h30.56l33.69,93.71h-28.39l-4.21-12.9ZM1286.54,236.92l-8.96-28.11-9.1,28.11h18.07Z"/>
    </g>
    <g>
      <g>
        <g>
          <path class="cls-3" d="M719.53,413.51c0,22.5-20.04,38.39-48.79,38.39-18.53,0-36.88-7-48.04-18.34l14.94-19.29c7.56,7.94,19.67,12.48,31.2,12.48,14.18,0,23.83-7,23.83-16.83s-9.46-17.02-22.69-17.02h-18.91v-22.5h18.91c11.54,0,19.67-5.86,19.67-14s-8.89-14.37-21.94-14.37c-10.02,0-20.24,3.59-26.48,9.65l-14-18.91c10.21-9.83,26.86-15.88,43.5-15.88,27.04,0,45.76,14.75,45.76,35.74,0,12.29-6.81,22.69-17.78,28.75,12.86,6.05,20.8,17.97,20.8,32.15Z"/>
          <path class="cls-3" d="M799.33,387.6c0,25.53-20.99,44.25-49.17,44.25-30.07,0-49.74-20.8-49.74-53.14,0-40.66,31.39-75.46,81.32-81.88l5.11,24.39c-26.48,4.16-44.82,17.02-52.76,32.34,7.19-5.11,16.07-7.56,24.39-7.56,23.26,0,40.85,18.53,40.85,41.61ZM772.48,388.17c0-10.4-9.27-18.15-21.94-18.15-11.54,0-23.45,5.86-23.45,17.59,0,10.97,9.45,19.1,23.07,19.1,12.67,0,22.32-7.94,22.32-18.53Z"/>
          <path class="cls-3" d="M774.74,384.38c0-39.9,21.18-67.51,51.25-67.51s51.25,27.61,51.25,67.51-20.99,67.51-51.25,67.51-51.25-27.61-51.25-67.51ZM850.39,384.38c0-24.96-10.02-42.36-24.39-42.36s-24.4,17.4-24.4,42.36,10.21,42.36,24.4,42.36,24.39-17.4,24.39-42.36Z"/>
        </g>
        <path class="cls-3" d="M854.75,327.29c0-9.83,7.62-17.34,17.68-17.34s17.79,7.51,17.79,17.34-7.62,17.46-17.79,17.46-17.68-7.51-17.68-17.46ZM878.61,327.29c0-3.54-2.65-6.19-6.19-6.19s-6.19,2.65-6.19,6.19,2.65,6.3,6.19,6.3,6.19-2.76,6.19-6.3Z"/>
      </g>
      <g>
        <g>
          <path class="cls-1" d="M1050.03,338.13c1.99-.08,3.44.7,4.4,1.84-.51.32-.76.49-1.27.81-.66-.77-1.78-1.32-3.05-1.24-2.26.14-3.81,2.09-3.64,4.3.16,2.17,1.92,3.92,4.15,3.78,1.17-.07,2.14-.7,2.62-1.2-.04-.76-.06-1.14-.11-1.89-1.37.08-2.05.12-3.42.21-.04-.55-.05-.83-.09-1.39,2.01-.13,3.02-.19,5.04-.29.08,1.55.12,2.32.2,3.87-.96,1.17-2.42,1.95-4.15,2.1-3.01.26-5.67-2.24-5.89-5.06-.23-2.88,2.15-5.72,5.2-5.83Z"/>
          <path class="cls-1" d="M1061.2,344.25c-.8.03-1.2.04-2,.07.06,1.62.09,2.43.16,4.06-.63.02-.95.04-1.58.06-.15-3.51-.3-7.02-.45-10.53,1.83-.08,2.75-.11,4.58-.17,2.07-.06,3.51,1.21,3.55,3.15.04,1.9-1.24,2.93-2.59,3.15,1.14,1.66,1.71,2.49,2.82,4.15-.73.02-1.1.02-1.83.04-1.05-1.6-1.58-2.39-2.65-3.98ZM1061.73,339.14c-1.09.03-1.64.05-2.73.09.06,1.48.09,2.22.14,3.69,1.08-.04,1.62-.06,2.7-.09,1.16-.04,1.97-.8,1.94-1.9s-.89-1.83-2.06-1.79Z"/>
          <path class="cls-1" d="M1068.2,337.61c.66,0,.99-.01,1.65-.02.02,2.12.04,4.24.06,6.37.02,1.8,1.03,2.94,2.88,2.94,1.86,0,2.85-1.14,2.86-2.94.02-2.12.03-4.24.05-6.37.66,0,.99,0,1.65.02-.03,2.13-.05,4.27-.08,6.4.07,2.58-2.03,4.3-4.48,4.3-2.44,0-4.56-1.7-4.5-4.28-.03-2.14-.06-4.28-.08-6.41Z"/>
          <path class="cls-1" d="M1080.58,337.66c1.83.04,2.75.06,4.58.12,2.23.07,3.4,1.62,3.33,3.37-.08,1.75-1.37,3.18-3.55,3.11-1.16-.04-1.74-.06-2.9-.08-.04,1.62-.06,2.44-.1,4.06-.63-.02-.95-.02-1.58-.04.07-3.51.15-7.02.22-10.53ZM1084.9,339.16c-1.09-.04-1.64-.05-2.73-.08-.04,1.48-.06,2.22-.09,3.7,1.08.03,1.62.04,2.7.08,1.16.04,2-.67,2.05-1.78.04-1.11-.76-1.88-1.92-1.92Z"/>
          <path class="cls-1" d="M1096.14,338.14c2.87.31,5.27,2.87,5.04,5.82-.23,2.88-2.87,5.12-5.73,5.06-3.04-.06-5.18-2.97-5.04-5.74.14-2.84,2.66-5.47,5.73-5.14ZM1096.05,339.54c-2.25-.15-3.9,1.65-3.99,3.82-.1,2.28,1.21,4.11,3.48,4.25,2.24.14,3.8-1.5,3.99-3.78.18-2.15-1.24-4.15-3.48-4.29Z"/>
        </g>
        <g>
          <path class="cls-1" d="M986.62,360.96h28.44c9.93,0,14.67,6.47,14.67,12.79s-3.84,10.46-8.58,11.51c5.34.83,9.55,5.94,9.55,12.26,0,7.3-4.89,13.62-14.75,13.62h-29.34v-50.18ZM1012.12,380.37c2.63,0,4.44-1.88,4.44-4.36s-1.81-4.29-4.44-4.29h-12.56v8.65h12.56ZM1012.57,400.38c3.08,0,4.97-1.88,4.97-4.59,0-2.56-1.81-4.74-4.97-4.74h-13.01v9.33h13.01Z"/>
          <path class="cls-1" d="M1057.33,394.14h-6.62v17h-12.94v-50.18h25.13c11.13,0,17.45,7.37,17.45,16.7,0,8.73-5.34,13.39-10.01,15.05l10.23,18.43h-14.82l-8.43-17ZM1060.94,371.87h-10.23v11.28h10.23c3.39,0,6.24-2.18,6.24-5.64s-2.86-5.64-6.24-5.64Z"/>
          <path class="cls-1" d="M1087.5,360.96h36.79v10.91h-23.85v8.35h23.32v10.98h-23.32v19.94h-12.94v-50.18Z"/>
          <path class="cls-1" d="M1142.94,377.51l-8.43,8.5-7.37-7.75,17.53-17.3h11.21v50.18h-12.94v-33.63Z"/>
        </g>
      </g>
      <rect class="cls-1" x="925" y="342.83" width="1" height="63.07"/>
    </g>
  </g>
</svg>